<svg width="200" height="54" viewBox="0 0 200 54" fill="none" xmlns="http://www.w3.org/2000/svg">
<path fill-rule="evenodd" clip-rule="evenodd" d="M172.708 0C165.477 0 164.572 0.030175 161.732 0.15975C158.897 0.289325 156.96 0.740175 155.267 1.3987C153.492 2.0661 151.882 3.11335 150.551 4.46945C149.197 5.79916 148.149 7.40795 147.48 9.18385C146.825 10.8772 146.373 12.8155 146.243 15.6502C146.115 18.4884 146.083 19.3919 146.083 26.625C146.083 33.8581 146.113 34.7616 146.243 37.6016C146.373 40.4363 146.823 42.3728 147.482 44.0661C148.149 45.8411 149.197 47.4511 150.553 48.7823C151.882 50.1362 153.491 51.1841 155.267 51.8531C156.96 52.5098 158.897 52.9607 161.732 53.0902C164.572 53.2198 165.477 53.25 172.708 53.25C179.94 53.25 180.845 53.2198 183.685 53.0902C186.52 52.9607 188.456 52.5098 190.149 51.8513C191.924 51.1839 193.534 50.1366 194.866 48.7805C196.22 47.4508 197.267 45.842 197.936 44.0661C198.593 42.3728 199.044 40.4363 199.174 37.6016C199.303 34.7616 199.333 33.8563 199.333 26.625C199.333 19.3936 199.303 18.4884 199.174 15.6484C199.044 12.8137 198.593 10.8772 197.935 9.18385C197.266 7.40719 196.218 5.79772 194.864 4.46767C193.534 3.11374 191.925 2.06585 190.149 1.39692C188.456 0.74195 186.518 0.289325 183.683 0.15975C180.845 0.03195 179.941 0 172.708 0ZM172.708 4.79783C179.817 4.79783 180.66 4.82445 183.468 4.95225C186.063 5.07117 187.473 5.5025 188.412 5.86992C189.654 6.35095 190.542 6.9296 191.474 7.8597C192.405 8.79157 192.982 9.67907 193.463 10.9216C193.829 11.8605 194.262 13.2699 194.381 15.8649C194.509 18.673 194.535 19.5161 194.535 26.625C194.535 33.7339 194.509 34.577 194.381 37.385C194.262 39.9801 193.831 41.3894 193.463 42.3284C193.037 43.4849 192.357 44.5312 191.474 45.3903C190.615 46.2742 189.568 46.9542 188.412 47.3801C187.473 47.7457 186.063 48.1788 183.468 48.2977C180.66 48.4255 179.819 48.4522 172.708 48.4522C165.598 48.4522 164.756 48.4255 161.948 48.2977C159.353 48.1788 157.944 47.7475 157.005 47.3801C155.848 46.954 154.802 46.274 153.943 45.3903C153.059 44.5311 152.379 43.4849 151.953 42.3284C151.588 41.3894 151.154 39.9801 151.036 37.385C150.908 34.577 150.881 33.7339 150.881 26.625C150.881 19.5161 150.908 18.673 151.036 15.8649C151.154 13.2699 151.586 11.8605 151.953 10.9216C152.434 9.67907 153.013 8.79157 153.943 7.8597C154.802 6.97583 155.848 6.29588 157.005 5.86992C157.944 5.50427 159.353 5.07117 161.948 4.95225C164.756 4.82445 165.599 4.79783 172.708 4.79783V4.79783Z" fill="white"/>
<path fill-rule="evenodd" clip-rule="evenodd" d="M172.708 35.5089C171.542 35.5089 170.386 35.2791 169.308 34.8326C168.231 34.3862 167.251 33.7318 166.426 32.9068C165.601 32.0819 164.947 31.1025 164.501 30.0247C164.054 28.9469 163.824 27.7916 163.824 26.625C163.824 25.4583 164.054 24.3031 164.501 23.2253C164.947 22.1474 165.601 21.1681 166.426 20.3431C167.251 19.5182 168.231 18.8638 169.308 18.4174C170.386 17.9709 171.542 17.7411 172.708 17.7411C175.064 17.7411 177.324 18.6771 178.99 20.3431C180.656 22.0092 181.592 24.2688 181.592 26.625C181.592 28.9811 180.656 31.2408 178.99 32.9068C177.324 34.5729 175.064 35.5089 172.708 35.5089V35.5089ZM172.708 12.9397C169.079 12.9397 165.598 14.3816 163.031 16.9481C160.465 19.5145 159.023 22.9954 159.023 26.625C159.023 30.2545 160.465 33.7354 163.031 36.3019C165.598 38.8684 169.079 40.3102 172.708 40.3102C176.338 40.3102 179.819 38.8684 182.385 36.3019C184.952 33.7354 186.393 30.2545 186.393 26.625C186.393 22.9954 184.952 19.5145 182.385 16.9481C179.819 14.3816 176.338 12.9397 172.708 12.9397V12.9397ZM190.375 12.6912C190.375 13.5492 190.034 14.372 189.427 14.9787C188.821 15.5854 187.998 15.9262 187.14 15.9262C186.282 15.9262 185.459 15.5854 184.852 14.9787C184.246 14.372 183.905 13.5492 183.905 12.6912C183.905 11.8333 184.246 11.0105 184.852 10.4038C185.459 9.79712 186.282 9.4563 187.14 9.4563C187.998 9.4563 188.821 9.79712 189.427 10.4038C190.034 11.0105 190.375 11.8333 190.375 12.6912" fill="white"/>
<path d="M53.1094 14.4302C53.1454 14.9518 53.1454 15.4734 53.1454 15.9998C53.1454 32.0396 40.9347 50.5384 18.6069 50.5384V50.5288C12.0112 50.5384 5.55251 48.6491 0 45.0868C0.95907 45.2022 1.92295 45.2599 2.88923 45.2623C8.3552 45.2671 13.6649 43.4331 17.9651 40.0559C12.7708 39.9574 8.21579 36.5706 6.62455 31.6262C8.44414 31.9771 10.319 31.905 12.105 31.4171C6.44187 30.2729 2.36763 25.2973 2.36763 19.5188C2.36763 19.466 2.36763 19.4155 2.36763 19.365C4.05501 20.3048 5.94431 20.8264 7.87687 20.8841C2.5431 17.3195 0.898978 10.2238 4.11991 4.67609C10.283 12.2597 19.3761 16.87 29.1375 17.3579C28.1592 13.1419 29.4956 8.7239 32.6492 5.76015C37.5383 1.16431 45.2277 1.39987 49.8236 6.28656C52.5421 5.75054 55.1477 4.75301 57.5322 3.33965C56.626 6.14955 54.7295 8.53641 52.196 10.0531C54.6021 9.7695 56.9529 9.12531 59.1667 8.1422C57.537 10.5843 55.4842 12.7116 53.1094 14.4302Z" fill="white"/>
<path d="M132.333 3.91544V49.3346C132.333 50.373 131.921 51.3689 131.186 52.1032C130.452 52.8375 129.456 53.25 128.418 53.25H82.9987C81.9603 53.25 80.9643 52.8375 80.2301 52.1032C79.4958 51.3689 79.0833 50.373 79.0833 49.3346V3.91544C79.0833 2.877 79.4958 1.88109 80.2301 1.14681C80.9643 0.412518 81.9603 0 82.9987 0L128.418 0C129.456 0 130.452 0.412518 131.186 1.14681C131.921 1.88109 132.333 2.877 132.333 3.91544V3.91544ZM94.745 20.3603H86.9141V45.4191H94.745V20.3603ZM95.4498 11.7463C95.4539 11.154 95.3413 10.5666 95.1185 10.0178C94.8956 9.46896 94.5668 8.96941 94.1509 8.54765C93.7349 8.12589 93.24 7.79019 92.6943 7.55972C92.1486 7.32924 91.5629 7.20851 90.9705 7.20441H90.8296C89.625 7.20441 88.4697 7.68293 87.618 8.53471C86.7662 9.38648 86.2877 10.5417 86.2877 11.7463C86.2877 12.9509 86.7662 14.1062 87.618 14.9579C88.4697 15.8097 89.625 16.2882 90.8296 16.2882V16.2882C91.422 16.3028 92.0114 16.2005 92.5642 15.9872C93.1171 15.7739 93.6225 15.4537 94.0515 15.045C94.4806 14.6363 94.8249 14.1471 95.0648 13.6053C95.3048 13.0635 95.4356 12.4797 95.4498 11.8873V11.7463ZM124.502 30.1959C124.502 22.6626 119.71 19.7338 114.949 19.7338C113.39 19.6558 111.838 19.9878 110.447 20.6968C109.057 21.4058 107.876 22.467 107.024 23.7746H106.805V20.3603H99.4435V45.4191H107.274V32.091C107.161 30.7259 107.591 29.3714 108.471 28.3215C109.351 27.2717 110.609 26.6114 111.973 26.484H112.271C114.761 26.484 116.609 28.0502 116.609 31.997V45.4191H124.44L124.502 30.1959Z" fill="white"/>
</svg>
