<svg width="178" height="22" viewBox="0 0 178 22" fill="none" xmlns="http://www.w3.org/2000/svg">
<path d="M18.9405 0.367173L10.6655 18.9708L2.45184 0.367173H0L9.50089 21.7858H11.7382L21.2391 0.367173H18.9405Z" fill="white"/>
<path d="M24.3527 21.7858H26.6207V0.367173H24.3527V21.7858Z" fill="white"/>
<path d="M49.2928 0.367173V17.7469L35.4705 0.367173H33.601V21.7858H35.869V4.40611L49.6606 21.7858H51.5301V0.367173H49.2928Z" fill="white"/>
<path d="M58.5325 21.7858L99.8313 22C106.696 22 111.324 17.5939 111.324 11.2907C111.324 4.9875 106.696 0.58138 99.8313 0.58138L58.5325 0.367173V21.7858ZM60.8004 19.8275V2.32545L99.7087 2.53965C105.409 2.53965 109.087 6.15022 109.087 11.2907C109.087 16.4312 105.409 20.0417 99.7087 20.0417L60.8004 19.8275Z" fill="white"/>
<path d="M135.212 21.6022H137.603L127.796 0.183588H125.558L115.751 21.6022H118.111L120.685 15.8804H132.638L135.212 21.6022ZM121.513 14.0445L126.662 2.53964L131.811 14.0445H121.513Z" fill="white"/>
<path d="M144.243 21.6022H146.511V2.14186H154.05V0.183588H136.703V2.14186H144.243V21.6022Z" fill="white"/>
<path d="M166.752 21.7858C173.188 21.7858 178 17.1655 178 10.8929C178 4.62031 173.188 0 166.752 0C160.255 0 155.474 4.6509 155.474 10.8929C155.474 17.1349 160.255 21.7858 166.752 21.7858ZM166.752 19.7663C161.573 19.7663 157.711 16.0028 157.711 10.8929C157.711 5.78303 161.573 2.01947 166.752 2.01947C171.901 2.01947 175.732 5.78303 175.732 10.8929C175.732 16.0028 171.901 19.7663 166.752 19.7663Z" fill="white"/>
</svg>
