<svg width="178" height="23" viewBox="0 0 178 23" fill="none" xmlns="http://www.w3.org/2000/svg">
<path d="M18.9405 0.867173L10.6655 19.4708L2.45184 0.867173H0L9.50089 22.2858H11.7382L21.2391 0.867173H18.9405Z" fill="black"/>
<path d="M24.3527 22.2858H26.6207V0.867173H24.3527V22.2858Z" fill="black"/>
<path d="M49.2928 0.867173V18.2469L35.4705 0.867173H33.601V22.2858H35.869V4.90611L49.6606 22.2858H51.5301V0.867173H49.2928Z" fill="black"/>
<path d="M58.5325 22.2858L99.8313 22.5C106.696 22.5 111.324 18.0939 111.324 11.7907C111.324 5.4875 106.696 1.08138 99.8313 1.08138L58.5325 0.867173V22.2858ZM60.8004 20.3275V2.82545L99.7087 3.03965C105.409 3.03965 109.087 6.65022 109.087 11.7907C109.087 16.9312 105.409 20.5417 99.7087 20.5417L60.8004 20.3275Z" fill="black"/>
<path d="M135.212 22.1022H137.603L127.796 0.683588H125.558L115.751 22.1022H118.111L120.685 16.3804H132.638L135.212 22.1022ZM121.513 14.5445L126.662 3.03964L131.811 14.5445H121.513Z" fill="black"/>
<path d="M144.243 22.1022H146.511V2.64186H154.05V0.683588H136.703V2.64186H144.243V22.1022Z" fill="black"/>
<path d="M166.752 22.2858C173.188 22.2858 178 17.6655 178 11.3929C178 5.12031 173.188 0.5 166.752 0.5C160.255 0.5 155.474 5.1509 155.474 11.3929C155.474 17.6349 160.255 22.2858 166.752 22.2858ZM166.752 20.2663C161.573 20.2663 157.711 16.5028 157.711 11.3929C157.711 6.28303 161.573 2.51947 166.752 2.51947C171.901 2.51947 175.732 6.28303 175.732 11.3929C175.732 16.5028 171.901 20.2663 166.752 20.2663Z" fill="black"/>
</svg>
